<svg xmlns="http://www.w3.org/2000/svg" viewBox="0 0 220 160" role="img" aria-label="入会金無料 ¥0">
  <defs>
    <radialGradient id="bg1" cx="50%" cy="48%" r="62%">
      <stop offset="0%" stop-color="#fde0d8" stop-opacity=".55"/>
      <stop offset="60%" stop-color="#f6c8d4" stop-opacity=".22"/>
      <stop offset="100%" stop-color="#ffffff" stop-opacity="0"/>
    </radialGradient>
    <radialGradient id="bg2" cx="78%" cy="78%" r="40%">
      <stop offset="0%" stop-color="#fcdbcb" stop-opacity=".5"/>
      <stop offset="100%" stop-color="#ffffff" stop-opacity="0"/>
    </radialGradient>
    <radialGradient id="petal" cx="50%" cy="50%" r="50%">
      <stop offset="0%" stop-color="#f5b0c0"/>
      <stop offset="100%" stop-color="#f5b0c0" stop-opacity="0"/>
    </radialGradient>
  </defs>
  <rect width="220" height="160" fill="#ffffff"/>
  <ellipse cx="110" cy="78" rx="110" ry="76" fill="url(#bg1)"/>
  <ellipse cx="172" cy="124" rx="50" ry="40" fill="url(#bg2)"/>
  <circle cx="28" cy="42" r="6" fill="url(#petal)" opacity=".7"/>
  <circle cx="36" cy="124" r="5" fill="url(#petal)" opacity=".55"/>
  <circle cx="190" cy="40" r="4" fill="url(#petal)" opacity=".6"/>
  <circle cx="200" cy="80" r="3" fill="#e8a4b5" opacity=".5"/>
  <g transform="translate(110 78)">
    <path d="M -56 -22 q -6 0 -6 6 q 0 4 4 5 q -2 2 0 6 q 2 4 6 4 l 0 2 q 0 6 6 6 l 92 0 q 6 0 6 -6 l 0 -2 q 4 0 6 -4 q 2 -4 0 -6 q 4 -1 4 -5 q 0 -6 -6 -6 l 0 -2 q 0 -6 -6 -6 l -92 0 q -6 0 -6 6 z" fill="#ffffff" stroke="#c06080" stroke-width="1.4"/>
    <line x1="20" y1="-30" x2="20" y2="22" stroke="#c06080" stroke-width="1" stroke-dasharray="3 3"/>
    <text x="-22" y="6" text-anchor="middle" fill="#c06080" font-family="-apple-system,BlinkMacSystemFont,'Hiragino Mincho ProN',serif" font-size="28" font-weight="700">¥0</text>
    <text x="40" y="-4" text-anchor="middle" fill="#c06080" font-family="-apple-system,BlinkMacSystemFont,sans-serif" font-size="8" font-weight="700" letter-spacing="1.5">FREE</text>
    <text x="40" y="9" text-anchor="middle" fill="#a44e6c" font-family="-apple-system,BlinkMacSystemFont,sans-serif" font-size="6.5" letter-spacing="1.2">ENTRY</text>
  </g>
  <text x="110" y="148" text-anchor="middle" fill="#a44e6c" font-family="-apple-system,BlinkMacSystemFont,sans-serif" font-size="9.5" font-weight="600" letter-spacing="2">No joining fee</text>
</svg>
