<svg xmlns="http://www.w3.org/2000/svg" viewBox="0 0 220 160" role="img" aria-label="1ヶ月無料体験 Liteプラン月4回">
  <defs>
    <radialGradient id="bg1" cx="55%" cy="50%" r="65%">
      <stop offset="0%" stop-color="#fde0d8" stop-opacity=".55"/>
      <stop offset="60%" stop-color="#f6c8d4" stop-opacity=".22"/>
      <stop offset="100%" stop-color="#ffffff" stop-opacity="0"/>
    </radialGradient>
    <radialGradient id="bg2" cx="22%" cy="72%" r="40%">
      <stop offset="0%" stop-color="#fcdbcb" stop-opacity=".45"/>
      <stop offset="100%" stop-color="#ffffff" stop-opacity="0"/>
    </radialGradient>
    <radialGradient id="petal1" cx="50%" cy="50%" r="50%">
      <stop offset="0%" stop-color="#f5b0c0"/>
      <stop offset="100%" stop-color="#f5b0c0" stop-opacity="0"/>
    </radialGradient>
  </defs>
  <rect width="220" height="160" fill="#ffffff"/>
  <ellipse cx="120" cy="80" rx="110" ry="78" fill="url(#bg1)"/>
  <ellipse cx="50" cy="120" rx="55" ry="42" fill="url(#bg2)"/>
  <circle cx="32" cy="38" r="6" fill="url(#petal1)" opacity=".7"/>
  <circle cx="196" cy="34" r="5" fill="url(#petal1)" opacity=".55"/>
  <circle cx="190" cy="128" r="7" fill="url(#petal1)" opacity=".5"/>
  <circle cx="22" cy="84" r="3.5" fill="#e8a4b5" opacity=".55"/>
  <g transform="translate(110 78)">
    <rect x="-38" y="-32" width="76" height="60" rx="9" fill="#ffffff" stroke="#c06080" stroke-width="1.4"/>
    <rect x="-38" y="-32" width="76" height="16" rx="9" fill="#c06080"/>
    <rect x="-38" y="-22" width="76" height="6" fill="#c06080"/>
    <line x1="-26" y1="-36" x2="-26" y2="-28" stroke="#c06080" stroke-width="2" stroke-linecap="round"/>
    <line x1="26" y1="-36" x2="26" y2="-28" stroke="#c06080" stroke-width="2" stroke-linecap="round"/>
    <text x="0" y="-19" text-anchor="middle" fill="#ffffff" font-family="-apple-system,BlinkMacSystemFont,sans-serif" font-size="7.5" font-weight="700" letter-spacing="1.6">1 MONTH</text>
    <g fill="#c06080">
      <circle cx="-20" cy="-4" r="3"/>
      <circle cx="-2" cy="-4" r="3"/>
      <circle cx="16" cy="-4" r="3"/>
      <circle cx="-20" cy="12" r="3"/>
    </g>
    <g fill="#e8a4b5" opacity=".35">
      <circle cx="-2" cy="12" r="3"/>
      <circle cx="16" cy="12" r="3"/>
      <circle cx="-20" cy="24" r="3"/>
      <circle cx="-2" cy="24" r="3"/>
      <circle cx="16" cy="24" r="3"/>
    </g>
  </g>
  <text x="110" y="148" text-anchor="middle" fill="#a44e6c" font-family="-apple-system,BlinkMacSystemFont,sans-serif" font-size="9.5" font-weight="600" letter-spacing="2">Lite × 4 lessons</text>
</svg>
