<svg xmlns="http://www.w3.org/2000/svg" viewBox="0 0 220 160" role="img" aria-label="1ヶ月無料体験 Liteプラン月4回">
  <defs>
    <radialGradient id="m1bg" cx="50%" cy="50%" r="65%">
      <stop offset="0%" stop-color="#fde0d8" stop-opacity=".5"/>
      <stop offset="60%" stop-color="#f6c8d4" stop-opacity=".2"/>
      <stop offset="100%" stop-color="#ffffff" stop-opacity="0"/>
    </radialGradient>
  </defs>
  <rect width="220" height="160" fill="#ffffff"/>
  <ellipse cx="110" cy="80" rx="110" ry="78" fill="url(#m1bg)"/>
  <circle cx="30" cy="38" r="6" fill="#f5b0c0" opacity=".5"/>
  <circle cx="194" cy="36" r="5" fill="#f5b0c0" opacity=".45"/>
  <circle cx="192" cy="124" r="6" fill="#f5b0c0" opacity=".4"/>
  <g transform="translate(110 80)">
    <rect x="-50" y="-44" width="100" height="78" rx="10" fill="#ffffff" stroke="#c06080" stroke-width="1.6"/>
    <rect x="-50" y="-44" width="100" height="22" rx="10" fill="#c06080"/>
    <rect x="-50" y="-32" width="100" height="10" fill="#c06080"/>
    <line x1="-36" y1="-50" x2="-36" y2="-38" stroke="#c06080" stroke-width="2.4" stroke-linecap="round"/>
    <line x1="36" y1="-50" x2="36" y2="-38" stroke="#c06080" stroke-width="2.4" stroke-linecap="round"/>
    <text x="0" y="-27" text-anchor="middle" fill="#ffffff" font-family="-apple-system,BlinkMacSystemFont,sans-serif" font-size="11" font-weight="700" letter-spacing="2">1 MONTH</text>
    <g fill="#c06080">
      <circle cx="-25" cy="-5" r="4"/>
      <circle cx="0" cy="-5" r="4"/>
      <circle cx="25" cy="-5" r="4"/>
      <circle cx="-25" cy="15" r="4"/>
    </g>
    <g fill="#e8a4b5" opacity=".3">
      <circle cx="0" cy="15" r="4"/>
      <circle cx="25" cy="15" r="4"/>
    </g>
  </g>
  <text x="110" y="150" text-anchor="middle" fill="#a44e6c" font-family="-apple-system,BlinkMacSystemFont,sans-serif" font-size="10" font-weight="600" letter-spacing="2.4">Lite × 4 lessons</text>
</svg>
