<svg xmlns="http://www.w3.org/2000/svg" viewBox="0 0 220 160" role="img" aria-label="入会金無料 ¥0">
  <defs>
    <radialGradient id="febg" cx="50%" cy="50%" r="62%">
      <stop offset="0%" stop-color="#fde0d8" stop-opacity=".5"/>
      <stop offset="60%" stop-color="#f6c8d4" stop-opacity=".2"/>
      <stop offset="100%" stop-color="#ffffff" stop-opacity="0"/>
    </radialGradient>
  </defs>
  <rect width="220" height="160" fill="#ffffff"/>
  <ellipse cx="110" cy="80" rx="110" ry="76" fill="url(#febg)"/>
  <circle cx="28" cy="42" r="6" fill="#f5b0c0" opacity=".5"/>
  <circle cx="32" cy="124" r="5" fill="#f5b0c0" opacity=".45"/>
  <circle cx="192" cy="40" r="5" fill="#f5b0c0" opacity=".5"/>
  <circle cx="198" cy="124" r="6" fill="#f5b0c0" opacity=".4"/>
  <g transform="translate(110 80)">
    <path d="M -70 -28 q -6 0 -6 6 q 0 5 5 6 q -2 3 0 7 q 2 4 6 4 l 0 5 q 0 6 6 6 l 118 0 q 6 0 6 -6 l 0 -5 q 4 0 6 -4 q 2 -4 0 -7 q 5 -1 5 -6 q 0 -6 -6 -6 l 0 -5 q 0 -6 -6 -6 l -118 0 q -6 0 -6 6 z" fill="#ffffff" stroke="#c06080" stroke-width="1.6"/>
    <text x="0" y="9" text-anchor="middle" fill="#c06080" font-family="-apple-system,BlinkMacSystemFont,'Hiragino Mincho ProN',serif" font-size="34" font-weight="700">¥0</text>
  </g>
  <text x="110" y="150" text-anchor="middle" fill="#a44e6c" font-family="-apple-system,BlinkMacSystemFont,sans-serif" font-size="10" font-weight="600" letter-spacing="2.4">No joining fee</text>
</svg>
